<svg width="160" height="120" viewBox="0 0 160 120" fill="none" xmlns="http://www.w3.org/2000/svg">
  <!-- 转换图形 - 恢复纵向交错 -->
  <g>
    <!-- 起始形状 -->
    <path 
      d="M0 20C0 8.954 8.954 0 20 0H100C111.046 0 120 8.954 120 20V60C120 71.046 111.046 80 100 80H20C8.954 80 0 71.046 0 60V20Z"
      fill="url(#sourceGradient)"
      opacity="0.9"
    />
    
    <!-- 终止形状 -->
    <path 
      d="M40 40C40 28.954 48.954 20 60 20H140C151.046 20 160 28.954 160 40V80C160 91.046 151.046 100 140 100H60C48.954 100 40 91.046 40 80V40Z"
      fill="url(#targetGradient)"
      opacity="0.9"
    />
  </g>

  <!-- 渐变定义 -->
  <defs>
    <linearGradient id="sourceGradient" x1="0" y1="0" x2="120" y2="100">
      <stop offset="0%" stop-color="#2563EB"/>
      <stop offset="100%" stop-color="#3B82F6"/>
    </linearGradient>
    
    <linearGradient id="targetGradient" x1="40" y1="40" x2="160" y2="140">
      <stop offset="0%" stop-color="#60A5FA"/>
      <stop offset="100%" stop-color="#93C5FD"/>
    </linearGradient>
  </defs>
</svg> 